# xmcd
#
# Track frame offsets:
#	150
#	22517
#	36989
#	49984
#	70370
#	82153
#	103270
#	116050
#	132190
#	156811
#	176462
#	192418
#
# Disc length: 2793 seconds
#
# Revision: 0
# Processed by: cddbd v1.5.2PL0 Copyright (c) Steve Scherf et al.
# Submitted via: audiograbber 1.83.01
#
DISCID=a50ae70c
DTITLE=Shirley Bassey - And I Love You So
DYEAR=1972
DGENRE=Popular
TTITLE0=Someday
TTITLE1=Bless the Beasts and the Children
TTITLE2=Jezahel
TTITLE3=And I Love You So
TTITLE4=The Way of Love
TTITLE5=The First Time Ever I Saw Your Face
TTITLE6=Day by Day
TTITLE7=Without You
TTITLE8=Ballad of the Sad Young Men
TTITLE9=I Don't Know How to Love Him
TTITLE10=I'd Do It All Again
TTITLE11=If We Only Have Love
EXTD=
EXTT0=
EXTT1=
EXTT2=
EXTT3=
EXTT4=
EXTT5=
EXTT6=
EXTT7=
EXTT8=
EXTT9=
EXTT10=
EXTT11=
PLAYORDER=
